<mxfile host="app.diagrams.net" modified="2024-04-22T16:35:02.351Z" agent="Mozilla/5.0 (Windows NT 10.0; Win64; x64) AppleWebKit/537.36 (KHTML, like Gecko) Chrome/124.0.0.0 Safari/537.36" etag="xmLtrDCL8PMo0JGk7dBF" version="24.2.7" type="device">
  <diagram name="Page-1" id="68npkbStFup1UtbP_Nmd">
    <mxGraphModel dx="1035" dy="555" grid="1" gridSize="10" guides="1" tooltips="1" connect="1" arrows="1" fold="1" page="1" pageScale="1" pageWidth="827" pageHeight="1169" math="0" shadow="0">
      <root>
        <mxCell id="0" />
        <mxCell id="1" parent="0" />
        <mxCell id="aCo939wnlC7SU7OTgkie-3" value="" style="rounded=0;whiteSpace=wrap;html=1;" vertex="1" parent="1">
          <mxGeometry x="200" y="70" width="330" height="290" as="geometry" />
        </mxCell>
        <mxCell id="aCo939wnlC7SU7OTgkie-4" value="Domains" style="text;html=1;align=center;verticalAlign=middle;whiteSpace=wrap;rounded=0;" vertex="1" parent="1">
          <mxGeometry x="310" y="70" width="110" height="30" as="geometry" />
        </mxCell>
        <mxCell id="aCo939wnlC7SU7OTgkie-5" value="DBMS" style="rounded=0;whiteSpace=wrap;html=1;" vertex="1" parent="1">
          <mxGeometry x="230" y="110" width="130" height="30" as="geometry" />
        </mxCell>
        <mxCell id="aCo939wnlC7SU7OTgkie-6" value="Shop configuration" style="rounded=0;whiteSpace=wrap;html=1;" vertex="1" parent="1">
          <mxGeometry x="380" y="110" width="130" height="30" as="geometry" />
        </mxCell>
        <mxCell id="aCo939wnlC7SU7OTgkie-28" style="edgeStyle=orthogonalEdgeStyle;rounded=0;orthogonalLoop=1;jettySize=auto;html=1;exitX=0.5;exitY=0.5;exitDx=0;exitDy=0;exitPerimeter=0;" edge="1" parent="1" source="aCo939wnlC7SU7OTgkie-7" target="aCo939wnlC7SU7OTgkie-18">
          <mxGeometry relative="1" as="geometry" />
        </mxCell>
        <mxCell id="aCo939wnlC7SU7OTgkie-7" value="User" style="shape=umlActor;verticalLabelPosition=bottom;verticalAlign=top;html=1;outlineConnect=0;" vertex="1" parent="1">
          <mxGeometry x="640" y="240" width="30" height="60" as="geometry" />
        </mxCell>
        <mxCell id="aCo939wnlC7SU7OTgkie-8" value="Shop owner" style="shape=umlActor;verticalLabelPosition=bottom;verticalAlign=top;html=1;outlineConnect=0;" vertex="1" parent="1">
          <mxGeometry x="580" y="350" width="30" height="60" as="geometry" />
        </mxCell>
        <mxCell id="aCo939wnlC7SU7OTgkie-10" value="Frontend Interface" style="rounded=0;whiteSpace=wrap;html=1;" vertex="1" parent="1">
          <mxGeometry x="230" y="150" width="130" height="30" as="geometry" />
        </mxCell>
        <mxCell id="aCo939wnlC7SU7OTgkie-11" value="Backend Development" style="rounded=0;whiteSpace=wrap;html=1;" vertex="1" parent="1">
          <mxGeometry x="380" y="150" width="130" height="30" as="geometry" />
        </mxCell>
        <mxCell id="aCo939wnlC7SU7OTgkie-12" value="Auths" style="rounded=0;whiteSpace=wrap;html=1;" vertex="1" parent="1">
          <mxGeometry x="230" y="190" width="130" height="40" as="geometry" />
        </mxCell>
        <mxCell id="aCo939wnlC7SU7OTgkie-13" value="Product Management" style="rounded=0;whiteSpace=wrap;html=1;" vertex="1" parent="1">
          <mxGeometry x="380" y="190" width="130" height="40" as="geometry" />
        </mxCell>
        <mxCell id="aCo939wnlC7SU7OTgkie-14" value="Filters" style="rounded=0;whiteSpace=wrap;html=1;" vertex="1" parent="1">
          <mxGeometry x="230" y="240" width="130" height="40" as="geometry" />
        </mxCell>
        <mxCell id="aCo939wnlC7SU7OTgkie-15" value="Shopping cart &amp;amp; Checkout" style="rounded=0;whiteSpace=wrap;html=1;" vertex="1" parent="1">
          <mxGeometry x="380" y="240" width="130" height="40" as="geometry" />
        </mxCell>
        <mxCell id="aCo939wnlC7SU7OTgkie-16" value="Reporting/ Logging" style="rounded=0;whiteSpace=wrap;html=1;" vertex="1" parent="1">
          <mxGeometry x="230" y="290" width="130" height="40" as="geometry" />
        </mxCell>
        <mxCell id="aCo939wnlC7SU7OTgkie-17" value="Security" style="rounded=0;whiteSpace=wrap;html=1;" vertex="1" parent="1">
          <mxGeometry x="380" y="290" width="130" height="40" as="geometry" />
        </mxCell>
        <mxCell id="aCo939wnlC7SU7OTgkie-18" value="Customer" style="shape=umlActor;verticalLabelPosition=bottom;verticalAlign=top;html=1;outlineConnect=0;" vertex="1" parent="1">
          <mxGeometry x="710" y="350" width="30" height="60" as="geometry" />
        </mxCell>
        <mxCell id="aCo939wnlC7SU7OTgkie-19" value="Admin" style="shape=umlActor;verticalLabelPosition=bottom;verticalAlign=top;html=1;outlineConnect=0;" vertex="1" parent="1">
          <mxGeometry x="860" y="250" width="30" height="60" as="geometry" />
        </mxCell>
        <mxCell id="aCo939wnlC7SU7OTgkie-27" style="edgeStyle=orthogonalEdgeStyle;rounded=0;orthogonalLoop=1;jettySize=auto;html=1;exitX=0.5;exitY=0.5;exitDx=0;exitDy=0;exitPerimeter=0;entryX=0.5;entryY=0;entryDx=0;entryDy=0;entryPerimeter=0;" edge="1" parent="1" source="aCo939wnlC7SU7OTgkie-7" target="aCo939wnlC7SU7OTgkie-8">
          <mxGeometry relative="1" as="geometry" />
        </mxCell>
        <mxCell id="aCo939wnlC7SU7OTgkie-29" value="" style="rounded=0;whiteSpace=wrap;html=1;" vertex="1" parent="1">
          <mxGeometry x="130" y="510" width="350" height="160" as="geometry" />
        </mxCell>
        <mxCell id="aCo939wnlC7SU7OTgkie-30" value="Shop configuration" style="text;html=1;align=center;verticalAlign=middle;whiteSpace=wrap;rounded=0;" vertex="1" parent="1">
          <mxGeometry x="250" y="510" width="135" height="30" as="geometry" />
        </mxCell>
        <mxCell id="aCo939wnlC7SU7OTgkie-31" value="Product Management" style="rounded=0;whiteSpace=wrap;html=1;" vertex="1" parent="1">
          <mxGeometry x="140" y="555" width="160" height="45" as="geometry" />
        </mxCell>
        <mxCell id="aCo939wnlC7SU7OTgkie-33" value="Owner Management" style="rounded=0;whiteSpace=wrap;html=1;" vertex="1" parent="1">
          <mxGeometry x="320" y="555" width="150" height="45" as="geometry" />
        </mxCell>
        <mxCell id="aCo939wnlC7SU7OTgkie-34" value="Customer Management" style="rounded=0;whiteSpace=wrap;html=1;" vertex="1" parent="1">
          <mxGeometry x="140" y="610" width="160" height="40" as="geometry" />
        </mxCell>
        <mxCell id="aCo939wnlC7SU7OTgkie-35" value="Payment" style="rounded=0;whiteSpace=wrap;html=1;" vertex="1" parent="1">
          <mxGeometry x="320" y="610" width="150" height="40" as="geometry" />
        </mxCell>
        <mxCell id="aCo939wnlC7SU7OTgkie-36" value="" style="rounded=0;whiteSpace=wrap;html=1;" vertex="1" parent="1">
          <mxGeometry x="120" y="950" width="580" height="60" as="geometry" />
        </mxCell>
        <mxCell id="aCo939wnlC7SU7OTgkie-37" value="Includes related products or recommendations based on user preferences or browsing history." style="text;whiteSpace=wrap;" vertex="1" parent="1">
          <mxGeometry x="130" y="960" width="530" height="40" as="geometry" />
        </mxCell>
      </root>
    </mxGraphModel>
  </diagram>
</mxfile>
